# xmcd
#
# Track frame offsets:
#	150
#	13985
#	32574
#	44468
#	63027
#	87798
#	98526
#	119584
#	133903
#	148711
#	168565
#	172529
#	190494
#	207748
#	227967
#	244777
#
# Disc length: 3405 seconds
#
# Revision: 1
# Processed by: cddbd v1.5.2PL0 Copyright (c) Steve Scherf et al.
# Submitted via: audiograbber 1.83.01
#
DISCID=e10d4b10
DTITLE=Alain Souchon - Best Of 3CD [CD3)
DYEAR=2009
DGENRE=Variété Française
TTITLE0=Quand J'Serai KO
TTITLE1=Ultra Moderne Solitude
TTITLE2=La Chanson Parfaite
TTITLE3=J'Attends Quelqu'un
TTITLE4=Dandy
TTITLE5=Comédie
TTITLE6=Les Cadors
TTITLE7=Vous Êtes Lents
TTITLE8=J'veux Du Cuir
TTITLE9=Ballade De Jim
TTITLE10=Pourquoi Tu T'prépares
TTITLE11=Pays Industriels
TTITLE12=Les Jours Sans Moi
TTITLE13=C'est Comme Vous Voulez
TTITLE14=La Vie Intime Est Maritime
TTITLE15=Portbail
EXTD=CD3
EXTT0=
EXTT1=
EXTT2=
EXTT3=
EXTT4=
EXTT5=
EXTT6=
EXTT7=
EXTT8=
EXTT9=
EXTT10=
EXTT11=
EXTT12=
EXTT13=
EXTT14=
EXTT15=
PLAYORDER=
